kopru_tumbacak
version=1
nRows=83
nColumns=15
inDegrees=yes
endheader
time	sacrum_pitch	sacrum_roll	sacrum_yaw	sacrum_x	sacrum_y	sacrum_z	sacroiliac_flx	hip_flx	hip_add	hip_int	knee_flx	ankle_flx	ankle_add	ankle_int
2.252400	20.633716	0.000000	0.000000	0.000000	0.050000	0.000000	3.700000	-8.920533	-10.000000	0.000000	-91.500000	-33.682630	-5.000000	0.000000
2.257350	20.633716	0.000000	0.000000	0.000000	0.050000	0.000000	3.700000	-8.680514	-10.000000	0.000000	-91.464339	-33.500000	-5.000000	0.000000
2.262300	20.633716	0.000000	0.000000	0.000000	0.050000	0.000000	3.700000	-8.978491	-10.000000	0.000000	-91.353996	-33.723581	-5.000000	0.000000
2.267250	20.633716	0.000000	0.000000	0.000000	0.050000	0.000000	3.700000	-8.500000	-10.000000	0.000000	-91.174206	-33.500000	-5.000000	0.000000
2.272200	20.633716	0.000000	0.000000	0.000000	0.050000	0.000000	3.700000	-8.509717	-10.000000	0.000000	-91.500000	-33.668198	-5.000000	0.000000
2.277150	20.633716	0.000000	0.000000	0.000000	0.050000	0.000000	3.700000	-8.536465	-10.000000	0.000000	-91.464818	-33.500000	-5.000000	0.000000
2.282100	20.633716	0.000000	0.000000	0.000000	0.050000	0.000000	3.700000	-8.510160	-10.000000	0.000000	-91.467329	-33.683850	-5.000000	0.000000
2.287050	20.633716	0.000000	0.000000	0.000000	0.050000	0.000000	3.700000	-8.998056	-10.000000	0.000000	-91.188701	-33.500000	-5.000000	0.000000
2.292000	20.633716	0.000000	0.000000	0.000000	0.050000	0.000000	3.700000	-8.797020	-10.000000	0.000000	-91.464707	-33.691484	-5.000000	0.000000
2.296950	20.633716	0.000000	0.000000	0.000000	0.050000	0.000000	3.700000	-8.582868	-10.000000	0.000000	-91.250301	-33.500000	-5.000000	0.000000
2.301900	20.633716	0.000000	0.000000	0.000000	0.050000	0.000000	3.700000	-8.500000	-10.000000	0.000000	-91.000318	-33.675351	-5.000000	0.000000
2.306850	20.633716	0.000000	0.000000	0.000000	0.050000	0.000000	3.700000	-8.781613	-10.000000	0.000000	-91.470580	-33.500000	-5.000000	0.000000
2.311800	20.633716	0.000000	0.000000	0.000000	0.050000	0.000000	3.700000	-8.574608	-10.000000	0.000000	-91.061873	-33.500000	-5.000000	0.000000
2.316750	20.633716	0.000000	0.000000	0.000000	0.050000	0.000000	3.700000	-8.989197	-10.000000	0.000000	-91.387048	-33.500000	-5.000000	0.000000
2.321700	20.633716	0.000000	0.000000	0.000000	0.050000	0.000000	3.700000	-8.526562	-10.000000	0.000000	-91.500000	-33.642710	-5.000000	0.000000
2.326650	20.633716	0.000000	0.000000	0.000000	0.050000	0.000000	3.700000	-8.592214	-10.000000	0.000000	-91.475801	-33.577360	-5.000000	0.000000
2.331600	20.633716	0.000000	0.000000	0.000000	0.050000	0.000000	3.700000	-8.590198	-10.000000	0.000000	-91.176520	-33.809129	-5.000000	0.000000
2.336550	20.633716	0.000000	0.000000	0.000000	0.050000	0.000000	3.700000	-8.505096	-10.000000	0.000000	-91.500000	-33.500000	-5.000000	0.000000
2.341500	20.633716	0.000000	0.000000	0.000000	0.050000	0.000000	3.700000	-8.711391	-10.000000	0.000000	-91.428962	-33.157586	-5.000000	0.000000
2.346450	20.633716	0.000000	0.000000	0.000000	0.050000	0.000000	3.700000	-8.766951	-10.000000	0.000000	-91.081290	-31.878048	-5.000000	0.000000
2.351400	20.633716	0.000000	0.000000	0.000000	0.050000	0.000000	3.700000	-8.650988	-10.000000	0.000000	-91.335440	-30.535859	-5.000000	0.000000
2.356350	20.633716	0.000000	0.000000	0.000000	0.050000	0.000000	3.700000	-8.732472	-10.000000	0.000000	-91.491118	-31.437924	-5.000000	0.000000
2.361300	20.633716	0.000000	0.000000	0.000000	0.050000	0.000000	3.700000	-8.796221	-10.000000	0.000000	-91.082721	-28.475634	-5.000000	0.000000
2.366250	20.633716	0.000000	0.000000	0.000000	0.050000	0.000000	3.700000	-8.684876	-10.000000	0.000000	-91.430487	-27.588658	-5.000000	0.000000
2.371200	20.633716	0.000000	0.000000	0.000000	0.050000	0.000000	3.700000	-8.486502	-10.000000	0.000000	-91.791747	-25.746630	-5.000000	0.000000
2.376150	20.633716	0.000000	0.000000	0.000000	0.050000	0.000000	3.700000	-8.177748	-10.000000	0.000000	-92.311000	-23.685641	-5.000000	0.000000
2.381100	20.633716	0.000000	0.000000	0.000000	0.050000	0.000000	3.700000	-7.726449	-10.000000	0.000000	-92.977721	-21.619328	-5.000000	0.000000
2.386050	20.633716	0.000000	0.000000	0.000000	0.050000	0.000000	3.700000	-7.073580	-10.000000	0.000000	-93.828807	-19.192692	-5.000000	0.000000
2.391000	20.633716	0.000000	0.000000	0.000000	0.050000	0.000000	3.700000	-6.210103	-10.000000	0.000000	-94.876474	-16.584543	-5.000000	0.000000
2.395950	20.633716	0.000000	0.000000	0.000000	0.050000	0.000000	3.700000	-5.116873	-10.000000	0.000000	-96.138307	-13.807167	-5.000000	0.000000
2.400900	20.633716	0.000000	0.000000	0.000000	0.050000	0.000000	3.700000	-3.798315	-10.000000	0.000000	-97.611895	-10.876327	-5.000000	0.000000
2.405850	20.633716	0.000000	0.000000	0.000000	0.050000	0.000000	3.700000	-2.272565	-10.000000	0.000000	-99.278403	-7.811154	-5.000000	0.000000
2.410800	20.633716	0.000000	0.000000	0.000000	0.050000	0.000000	3.700000	-0.531359	-10.000000	0.000000	-101.150978	-4.621771	-5.000000	0.000000
2.415750	20.633716	0.000000	0.000000	0.000000	0.050000	0.000000	3.700000	1.426822	-10.000000	0.000000	-103.241521	-1.295629	-5.000000	0.000000
2.420700	20.633716	0.000000	0.000000	0.000000	0.050000	0.000000	3.700000	3.569732	-10.000000	0.000000	-105.644830	2.159888	-5.000000	0.000000
2.425650	20.633716	0.000000	0.000000	0.000000	0.050000	0.000000	3.700000	5.858184	-10.000000	0.000000	-108.253937	5.738431	-5.000000	0.000000
2.430600	20.633716	0.000000	0.000000	0.000000	0.050000	0.000000	3.700000	8.287093	-10.000000	0.000000	-110.995383	9.449036	-5.000000	0.000000
2.435550	20.633716	0.000000	0.000000	0.000000	0.050000	0.000000	3.700000	10.750192	-10.000000	0.000000	-113.713447	13.066204	-5.000000	0.000000
2.440500	20.633716	0.000000	0.000000	0.000000	0.050000	0.000000	3.700000	12.530294	-10.000000	0.000000	-115.782785	15.151587	-5.000000	0.000000
2.445450	20.633716	0.000000	0.000000	0.000000	0.050000	0.000000	3.700000	13.977591	-10.000000	0.000000	-117.499159	16.802653	-5.000000	0.000000
2.450400	20.633716	0.000000	0.000000	0.000000	0.050000	0.000000	3.700000	14.659739	-10.000000	0.000000	-118.455930	17.894649	-5.000000	0.000000
2.455350	20.633716	0.000000	0.000000	0.000000	0.050000	0.000000	3.700000	15.149556	-10.000000	0.000000	-119.192402	18.790806	-5.000000	0.000000
2.460300	20.633716	0.000000	0.000000	0.000000	0.050000	0.000000	3.700000	15.398756	-10.000000	0.000000	-119.656506	19.464362	-5.000000	0.000000
2.465250	20.633716	0.000000	0.000000	0.000000	0.050000	0.000000	3.700000	15.566022	-10.000000	0.000000	-120.004454	20.061960	-5.000000	0.000000
2.470200	20.633716	0.000000	0.000000	0.000000	0.050000	0.000000	3.700000	15.644752	-10.000000	0.000000	-120.229286	20.631495	-5.000000	0.000000
2.475150	20.633716	0.000000	0.000000	0.000000	0.050000	0.000000	3.700000	15.667064	-10.000000	0.000000	-120.362018	21.252247	-5.000000	0.000000
2.480100	20.633716	0.000000	0.000000	0.000000	0.050000	0.000000	3.700000	15.626172	-10.000000	0.000000	-120.391350	21.977031	-5.000000	0.000000
2.485050	20.633716	0.000000	0.000000	0.000000	0.050000	0.000000	3.700000	15.532814	-10.000000	0.000000	-120.326311	22.782899	-5.000000	0.000000
2.490000	20.633716	0.000000	0.000000	0.000000	0.050000	0.000000	3.700000	15.402093	-10.000000	0.000000	-120.193129	23.617186	-5.000000	0.000000
2.494950	20.633716	0.000000	0.000000	0.000000	0.050000	0.000000	3.700000	15.238682	-10.000000	0.000000	-119.998194	24.466680	-5.000000	0.000000
2.499900	20.633716	0.000000	0.000000	0.000000	0.050000	0.000000	3.700000	15.046322	-10.000000	0.000000	-119.739624	25.046473	-5.000000	0.000000
2.504850	20.633716	0.000000	0.000000	0.000000	0.050000	0.000000	3.700000	14.836344	-10.000000	0.000000	-119.452794	25.065390	-5.000000	0.000000
2.509800	20.633716	0.000000	0.000000	0.000000	0.050000	0.000000	3.700000	14.590942	-10.000000	0.000000	-119.116089	24.925979	-5.000000	0.000000
2.514750	20.633716	0.000000	0.000000	0.000000	0.050000	0.000000	3.700000	14.295248	-10.000000	0.000000	-118.711947	24.723671	-5.000000	0.000000
2.519700	20.633716	0.000000	0.000000	0.000000	0.050000	0.000000	3.700000	13.935670	-10.000000	0.000000	-118.224325	24.409414	-5.000000	0.000000
2.524650	20.633716	0.000000	0.000000	0.000000	0.050000	0.000000	3.700000	13.488871	-10.000000	0.000000	-117.632161	24.023319	-5.000000	0.000000
2.529600	20.633716	0.000000	0.000000	0.000000	0.050000	0.000000	3.700000	12.932238	-10.000000	0.000000	-116.909858	23.493389	-5.000000	0.000000
2.534550	20.633716	0.000000	0.000000	0.000000	0.050000	0.000000	3.700000	12.244478	-10.000000	0.000000	-116.035016	22.813640	-5.000000	0.000000
2.539500	20.633716	0.000000	0.000000	0.000000	0.050000	0.000000	3.700000	11.426838	-10.000000	0.000000	-115.000169	21.914009	-5.000000	0.000000
2.544450	20.633716	0.000000	0.000000	0.000000	0.050000	0.000000	3.700000	10.437097	-10.000000	0.000000	-113.755269	20.798982	-5.000000	0.000000
2.549400	20.633716	0.000000	0.000000	0.000000	0.050000	0.000000	3.700000	9.289873	-10.000000	0.000000	-112.342883	19.352822	-5.000000	0.000000
2.554350	20.633716	0.000000	0.000000	0.000000	0.050000	0.000000	3.700000	7.972268	-10.000000	0.000000	-110.742434	17.566112	-5.000000	0.000000
2.559300	20.633716	0.000000	0.000000	0.000000	0.050000	0.000000	3.700000	6.478059	-10.000000	0.000000	-108.948438	15.494851	-5.000000	0.000000
2.564250	20.633716	0.000000	0.000000	0.000000	0.050000	0.000000	3.700000	4.797708	-10.000000	0.000000	-106.939652	13.172575	-5.000000	0.000000
2.569200	20.633716	0.000000	0.000000	0.000000	0.050000	0.000000	3.700000	2.918909	-10.000000	0.000000	-104.689680	10.596389	-5.000000	0.000000
2.574150	20.633716	0.000000	0.000000	0.000000	0.050000	0.000000	3.700000	0.826042	-10.000000	0.000000	-102.166232	7.752308	-5.000000	0.000000
2.579100	20.633716	0.000000	0.000000	0.000000	0.050000	0.000000	3.700000	-1.507123	-10.000000	0.000000	-99.312066	4.610029	-5.000000	0.000000
2.584050	20.633716	0.000000	0.000000	0.000000	0.050000	0.000000	3.700000	-4.088174	-10.000000	0.000000	-96.162230	1.199145	-5.000000	0.000000
2.589000	20.633716	0.000000	0.000000	0.000000	0.050000	0.000000	3.700000	-6.930851	-10.000000	0.000000	-92.709231	-2.488862	-5.000000	0.000000
2.593950	20.633716	0.000000	0.000000	0.000000	0.050000	0.000000	3.700000	-8.511162	-10.000000	0.000000	-91.438434	-5.216721	-5.000000	0.000000
2.598900	20.633716	0.000000	0.000000	0.000000	0.050000	0.000000	3.700000	-8.689645	-10.000000	0.000000	-91.042639	-6.978731	-5.000000	0.000000
2.603850	20.633716	0.000000	0.000000	0.000000	0.050000	0.000000	3.700000	-8.553729	-10.000000	0.000000	-91.500000	-9.199693	-5.000000	0.000000
2.608800	20.633716	0.000000	0.000000	0.000000	0.050000	0.000000	3.700000	-8.500000	-10.000000	0.000000	-91.292128	-11.711391	-5.000000	0.000000
2.613750	20.633716	0.000000	0.000000	0.000000	0.050000	0.000000	3.700000	-8.838988	-10.000000	0.000000	-91.475537	-14.475860	-5.000000	0.000000
2.618700	20.633716	0.000000	0.000000	0.000000	0.050000	0.000000	3.700000	-8.631780	-10.000000	0.000000	-91.112332	-17.507548	-5.000000	0.000000
2.623650	20.633716	0.000000	0.000000	0.000000	0.050000	0.000000	3.700000	-8.515722	-10.000000	0.000000	-91.398103	-20.719770	-5.000000	0.000000
2.628600	20.633716	0.000000	0.000000	0.000000	0.050000	0.000000	3.700000	-8.988279	-10.000000	0.000000	-91.500000	-23.751542	-5.000000	0.000000
2.633550	20.633716	0.000000	0.000000	0.000000	0.050000	0.000000	3.700000	-8.728203	-10.000000	0.000000	-91.259800	-26.366256	-5.000000	0.000000
2.638500	20.633716	0.000000	0.000000	0.000000	0.050000	0.000000	3.700000	-8.558907	-10.000000	0.000000	-91.473421	-28.848867	-5.000000	0.000000
2.643450	20.633716	0.000000	0.000000	0.000000	0.050000	0.000000	3.700000	-8.500000	-10.000000	0.000000	-91.127747	-30.364338	-5.000000	0.000000
2.648400	20.633716	0.000000	0.000000	0.000000	0.050000	0.000000	3.700000	-8.812113	-10.000000	0.000000	-91.057373	-32.736750	-5.000000	0.000000
2.653350	20.633716	0.000000	0.000000	0.000000	0.050000	0.000000	3.700000	-8.609624	-10.000000	0.000000	-91.188287	-33.443859	-5.000000	0.000000
2.658300	20.633716	0.000000	0.000000	0.000000	0.050000	0.000000	3.700000	-8.500000	-10.000000	0.000000	-91.266270	-33.500000	-5.000000	0.000000
